# xmcd CD database file
# Copyright (C) 1995-1998 Ti Kan
#
# Track frame offsets:
#	150
#	16360
#	31821
#	44118
#	56524
#	70062
#	82751
#	97186
#	110958
#	123561
#	137468
#	151638
#	165644
#	180098
#	194421
#	209232
#	221605
#	233956
#	245174
#	258758
#	272448
#	287736
#	301962
#
# Disc length: 4203 seconds
#
# Revision: 1
# Processed by: cddbd v1.4b41PL1 Copyright (c) Steve Scherf et al.
# Submitted via: CDex 1.30
#
DISCID=4a106917
DTITLE=East Coast Blues 1927-44 vol 1
DYEAR=1900
DGENRE=Blues
TTITLE0=Julius Daniels - Crow Jane
TTITLE1=Julius Daniels - My Mamma Was A Sailor
TTITLE2=Andrew and Jim Baxter - Georgia Stomp
TTITLE3=Blind Boy Fuller - Shake That Shimmy
TTITLE4=Floyd Council - Poor And Ain't Got A Dime
TTITLE5=Josh White - Blood Red River Blues
TTITLE6=Pink Anderson - Gonna Tip Out Tonight
TTITLE7=Luke Jordan - Won't You Be Kind
TTITLE8=Kokomo Arnold - Long And Tall
TTITLE9=Blind Willie McTell - Georgia Rag
TTITLE10=Barbecue Bob - Waycross Georgia Blues
TTITLE11=Georgia Browns - Next Door Man
TTITLE12=Curley Weaver - Tricks Ain't Walking No More
TTITLE13=Buddy Moss and Josh White - You Got To Give Me Some Of It
TTITLE14=Buddy Moss - Daddy Don't Care
TTITLE15=Brownie McGhee - Me And My Dog Blues
TTITLE16=Carl Martin - Let's Have A New Deal
TTITLE17=Blind Blake - Champagne Charlie Is My Name
TTITLE18=Peg Leg Howell - Please Ma'am
TTITLE19=Peg Leg Howell - Ball And Chain Blues
TTITLE20=Henry Williams and Eddie Anthony - Georgia Crawl
TTITLE21=William Moore - Ragtime Millionaire
TTITLE22=William Moore - Barbershop Rag
EXTD=\nYEAR:   ID3G:   0
EXTT0=
EXTT1=
EXTT2=
EXTT3=
EXTT4=
EXTT5=
EXTT6=
EXTT7=
EXTT8=
EXTT9=
EXTT10=
EXTT11=
EXTT12=
EXTT13=
EXTT14=
EXTT15=
EXTT16=
EXTT17=
EXTT18=
EXTT19=
EXTT20=
EXTT21=
EXTT22=
PLAYORDER=
